<?xml version="1.0" encoding="UTF-8"?>
<svg id="Capa_2" data-name="Capa 2" xmlns="http://www.w3.org/2000/svg" viewBox="0 0 26.81 32">
  <defs>
    <style>
      .cls-1 {
        fill: #fff;
        stroke-width: 0px;
      }
    </style>
  </defs>
  <g id="Capa_2-2" data-name="Capa 2">
    <g>
      <path class="cls-1" d="M0,18.53c-.1-3.7.52-6.21,2.42-8.23,2.29-2.45,5.07-3.25,8.31-2.15.06.02.12.04.17.06,1.83.96,3.61.84,5.5.04,3.77-1.61,7.49-.12,9.17,1.83.43.5.49.73-.11,1.17-4.19,3.06-3.84,9.16.69,11.74.69.4.78.7.49,1.4-.88,2.1-2.06,4.01-3.57,5.71-1.69,1.9-3.31,2.36-5.64,1.39-2.28-.95-4.48-.99-6.72.04-2.03.93-3.8.48-5.29-1.14C2.08,26.76.22,22.5,0,18.53Z"/>
      <path class="cls-1" d="M20.22.93c-.09,2.98-2.87,6.22-5.64,6.58-1.06.14-1.19.01-1.08-1.04.32-3.06,2.62-5.62,5.71-6.36.98-.23,1.04-.18,1.01.82Z"/>
    </g>
  </g>
</svg>