<?xml version="1.0" encoding="UTF-8"?>
<svg id="Capa_2" data-name="Capa 2" xmlns="http://www.w3.org/2000/svg" viewBox="0 0 59.24 61.06">
  <defs>
    <style>
      .cls-1 {
        fill: #fff;
        stroke-width: 0px;
      }
    </style>
  </defs>
  <g id="Capa_2-2" data-name="Capa 2">
    <path class="cls-1" d="M1.07,61.01c.07-.3.27-.44.42-.61,7.21-8.46,14.41-16.93,21.63-25.38.31-.37.32-.59.05-.98C15.54,22.91,7.93,11.77.32.63c-.11-.16-.21-.32-.32-.49C.16-.07.37.02.55.02,5.96.02,11.37.02,16.78,0c.48,0,.65.26.86.57,5,7.25,10,14.5,15,21.76.18.26.36.51.57.81.86-1.01,1.69-1.97,2.52-2.94,5.59-6.56,11.18-13.12,16.75-19.68.31-.37.63-.51,1.1-.5,1.34.03,2.68,0,4.01.01.19,0,.38.02.58.03-.06.3-.26.44-.4.61-7.23,8.52-14.47,17.03-21.72,25.53-.32.38-.34.61-.05,1.02,7.65,11.06,15.28,22.14,22.92,33.21.12.17.29.32.3.55-.21.12-.43.07-.64.07-5.45,0-10.9,0-16.35.01-.46,0-.74-.13-1-.52-4.94-7.25-9.89-14.49-14.84-21.73-.47-.69-.47-.69-1-.07-6.17,7.25-12.34,14.51-18.49,21.77-.34.4-.68.56-1.2.54-1.36-.03-2.72,0-4.07-.01-.19,0-.37-.02-.58-.04ZM51.97,57.19c-.15-.24-.23-.37-.32-.5C39.6,39.23,27.55,21.76,15.51,4.29c-.22-.32-.44-.42-.82-.42-2.28.02-4.56,0-6.85.01-.17,0-.35-.06-.53.1.12.18.23.36.35.53,7.52,11.01,15.05,22.01,22.57,33.02,4.38,6.41,8.77,12.82,13.14,19.24.21.31.43.44.82.43.85-.03,1.69,0,2.54,0h5.24Z"/>
  </g>
</svg>