<?xml version="1.0" encoding="UTF-8"?>
<svg id="Capa_2" data-name="Capa 2" xmlns="http://www.w3.org/2000/svg" viewBox="0 0 60.44 60.44">
  <defs>
    <style>
      .cls-1 {
        fill: #fff;
        stroke-width: 0px;
      }
    </style>
  </defs>
  <g id="Capa_2-2" data-name="Capa 2">
    <path class="cls-1" d="M30.26,0c16.75.01,30.19,13.5,30.18,30.3,0,16.72-13.55,30.17-30.34,30.14C13.43,60.4,0,46.92,0,30.22,0,13.44,13.47-.01,30.26,0ZM39.23,21.42c-.07.82-.71,1.13-1.17,1.55-4.52,4.14-9.06,8.26-13.59,12.39-.56.51-1.09.97-1.16,1.84-.2,2.41-.49,4.81-.74,7.21-.04.35-.33.79.1,1.03.49.27.78-.21,1.08-.48,1.28-1.15,2.58-2.28,3.79-3.5.74-.74,1.25-.86,2.12-.13,2.1,1.76,4.3,3.4,6.48,5.06,1.9,1.45,3.46.81,3.92-1.56,1.78-9.11,3.57-18.22,5.35-27.33.14-.72.5-1.57-.22-2.11-.64-.48-1.44-.22-2.16.07-10.76,4.28-21.53,8.56-32.29,12.84-.74.29-1.65.55-1.63,1.54.02,1.03.92,1.39,1.74,1.67,2.18.77,4.38,1.44,6.55,2.24.91.34,1.57.2,2.37-.32,5.9-3.84,11.82-7.63,17.75-11.42.47-.3.88-.83,1.71-.62Z"/>
  </g>
</svg>