<?xml version="1.0" encoding="UTF-8"?>
<svg id="Capa_2" data-name="Capa 2" xmlns="http://www.w3.org/2000/svg" viewBox="0 0 71.95 50.42">
  <defs>
    <style>
      .cls-1 {
        fill: #fff;
        stroke-width: 0px;
      }
    </style>
  </defs>
  <g id="Capa_2-2" data-name="Capa 2">
    <path class="cls-1" d="M71.95,27.32c-.05-.1-.03-.2-.03-.3,0-1.23,0-2.47,0-3.7,0-2.36,0-4.72,0-7.08-.01-.86.01-1.72-.02-2.58-.03-.79-.03-1.59-.11-2.38-.14-1.42-.4-2.81-.9-4.16-.71-1.92-1.92-3.43-3.69-4.48-1.75-1.04-3.68-1.56-5.66-1.9-1.69-.29-3.4-.42-5.1-.5-1.09-.05-2.19-.08-3.28-.11-1.54-.04-3.09-.05-4.63-.06-2.01,0-4.03-.05-6.04-.03-.03,0-.06,0-.08,0-1.03,0-2.06,0-3.09,0-.1,0-.21.03-.3-.03h-12.03c-.06.04-.13.03-.19.03-1.52.02-3.03-.02-4.55.02-1.12.03-2.25,0-3.37.03-1.26.03-2.52.02-3.79.08-1.06.05-2.11.11-3.16.17-1.55.1-3.08.35-4.59.75-1.85.49-3.33,1.5-4.35,3.14-1.05,1.7-1.7,3.56-2.14,5.49-.47,2.11-.68,4.26-.75,6.42-.04,1.32-.07,2.64-.06,3.96-.02.61.03,1.22-.03,1.83v4.89c.05.09.03.18.03.27,0,.61,0,1.23,0,1.84,0,2.04.03,4.08.13,6.12.04.7.08,1.4.14,2.1.1,1.1.24,2.19.44,3.28.33,1.88.78,3.72,1.68,5.42.67,1.26,1.6,2.28,2.82,3.03,1.65,1.02,3.48,1.39,5.39,1.44.84.02,1.68,0,2.53.02,1.18.04,2.36.02,3.54.02,2.14.01,4.29.06,6.43.04.11,0,.22,0,.34,0,.06,0,.11-.01.16.03h13.94c.1-.05.2-.03.3-.03,1.24,0,2.48,0,3.72,0,1.72-.02,3.45,0,5.17-.02,2.68-.03,5.36,0,8.03-.03,1.34-.02,2.68-.02,4.01-.07.92-.04,1.83-.06,2.75-.12,1.17-.07,2.33-.19,3.48-.41,1.33-.26,2.53-.74,3.34-1.92.82-1.2,1.65-2.39,2.21-3.74.91-2.19,1.2-4.51,1.31-6.85.05-1.04.08-2.08.06-3.11,0-.04,0-.07.03-.11v-6.69ZM30.28,36.9V13.71c5.87,3.68,11.64,7.53,17.47,11.38-5.67,4.15-11.48,8.04-17.47,11.81Z"/>
  </g>
</svg>