<?xml version="1.0" encoding="UTF-8"?>
<svg id="Capa_2" data-name="Capa 2" xmlns="http://www.w3.org/2000/svg" viewBox="0 0 77.15 57.29">
  <defs>
    <style>
      .cls-1 {
        fill: #fff;
        stroke-width: 0px;
      }
    </style>
  </defs>
  <g id="Capa_2-2" data-name="Capa 2">
    <path class="cls-1" d="M76.94,40.2c-.24-2.77-.61-5.53-1.11-8.27-.71-3.87-1.66-7.67-2.82-11.43-.79-2.56-1.72-5.07-2.76-7.55-.48-1.13-1.07-2.21-1.56-3.33-.04-.1-.04-.21-.09-.31-.82-1.54-1.79-2.95-3.33-3.88-.36-.21-.67-.51-1.1-.6-.61-.33-1.21-.69-1.84-1-2.13-1.03-4.34-1.83-6.63-2.43-2.26-.59-4.54-1.02-6.86-1.27-.72-.08-1.34.29-1.68.94-.19.38-.32.77-.46,1.17-.07.21-.07.3.18.34,2.21.35,4.38.9,6.51,1.59,1.31.43,2.61.87,3.84,1.5.11.14.27.2.43.27.79.39,1.6.75,2.34,1.23.39.25.81.46,1.2.71.7.45.96,1.2.68,1.9-.31.76-.96,1.09-1.81.93-.35-.04-.62-.28-.91-.44-.69-.37-1.33-.85-2.11-1.04-1.19-.54-2.37-1.08-3.61-1.51-2.33-.82-4.72-1.44-7.16-1.86-2.17-.37-4.35-.6-6.55-.68-1.53-.06-3.05.06-4.58.11-.31.16-.6-.07-.91-.03-1.56.2-3.11.4-4.65.72-.2.04-.4.09-.54.24-.44.1-.88.2-1.32.3-.19.1-.38-.02-.59.03-2.26.61-4.46,1.35-6.57,2.36-.96.41-1.88.91-2.76,1.47-.44.33-.93.51-1.49.37-.65-.21-1.02-.67-1.18-1.33-.04-.56.11-1.06.58-1.4.66-.48,1.37-.86,2.1-1.21.94-.44,1.86-.94,2.82-1.34.69-.31,1.39-.58,2.11-.84.2-.07.43-.1.57-.28.95-.42,1.96-.66,2.95-.92,1.38-.36,2.77-.7,4.19-.87.06-.09.11-.2.09-.31-.15-.63-.31-1.25-.77-1.73-.38-.38-.86-.58-1.4-.52-.51.06-1.03.08-1.53.17-.22.04-.43.06-.61.22-2.11.35-4.2.8-6.25,1.43-1.72.53-3.39,1.19-5.03,1.95-.13-.05-.24,0-.36.06-1.25.57-2.38,1.35-3.5,2.13-.13.09-.25.19-.28.36-.15.14-.31.26-.44.41-.85.94-1.48,2.04-2.06,3.15-1.6,3.07-2.81,6.3-3.87,9.58-1.72,5.31-2.97,10.73-3.75,16.26C.28,38.66.02,41.61,0,44.57c0,.69-.02,1.36.38,1.98.91,1.45,2.01,2.73,3.3,3.85.12.18.25.35.43.49.53.43,1.08.84,1.66,1.21.69.44,1.35.94,2.15,1.19.03,0,.07,0,.09.02,2.49,1.33,5.13,2.25,7.85,2.93,1.13.28,2.28.49,3.41.73.65.35,1.36.28,2.05.32.75.05,1.33-.26,1.76-.88.63-.91,1.31-1.79,1.95-2.7.11-.15.24-.29.2-.51.22-.3.43-.6.67-.93-.87-.26-1.7-.5-2.52-.76-1.46-.48-2.9-.99-4.28-1.69-.05-.16-.19-.2-.31-.26-1.31-.61-2.54-1.35-3.77-2.11-.64-.38-1.27-.8-1.81-1.32-.55-.53-.64-1.36-.26-1.92.47-.69,1.17-.91,1.96-.6.19.08.34.22.5.34,1.03.78,2.1,1.49,3.26,2.08.16.08.32.21.52.13,1.38.67,2.78,1.29,4.23,1.8,4.72,1.69,9.6,2.41,14.59,2.48,1.49.02,2.97-.03,4.45-.15,1.27-.11,2.54-.24,3.8-.43,1.35-.2,2.68-.55,4.02-.79.18.05.34-.02.5-.06.75-.19,1.5-.42,2.24-.66.49-.13.96-.29,1.41-.5.94-.39,1.89-.78,2.82-1.21.96-.44,1.89-.93,2.76-1.52.63-.37,1.21-.81,1.79-1.25.32-.24.65-.43,1.07-.4,1.2.07,1.86,1.26,1.38,2.23-.07.17-.17.34-.32.46-1.19.99-2.47,1.83-3.85,2.52-.97.47-1.92.99-2.92,1.41-.91.43-1.85.78-2.81,1.09-.44.1-.86.26-1.28.42-.47.19-.96.28-1.43.44-.23.08-.5.2-.31.49.49.72.92,1.48,1.58,2.08.4.55.81,1.09,1.21,1.64.44.61.97.98,1.77.9.93-.09,1.85-.2,2.77-.36,3.8-.68,7.42-1.84,10.82-3.69.61-.33,1.21-.69,1.82-1.04.21.03.36-.1.51-.21,1.99-1.42,3.73-3.09,5.03-5.18.1-.15.23-.31.14-.52.12-.26.16-.53.16-.82.03-1.72-.06-3.43-.21-5.14ZM33.53,32.23c-.02.51-.12,1.01-.19,1.52h0c-.1.42-.2.85-.44,1.23h0c-.74,1.72-1.91,2.96-3.76,3.48-1.19.43-2.35.31-3.49-.17-1.57-.67-2.63-1.83-3.25-3.4-.21-.38-.33-.79-.39-1.22-.36-1.4-.23-2.77.21-4.13.04-.13.11-.25.17-.38,0,0,0,0,0,0t0,0c.7-1.72,1.86-2.99,3.67-3.57,0,0,0,0,0,0h0c1.2-.46,2.4-.39,3.57.1,1.64.69,2.78,1.88,3.37,3.57.45.95.58,1.95.54,2.98ZM55.15,33.57c-.3,2.35-2.34,4.57-4.65,5.05-.1.02-.22,0-.32.01-.47.1-.94.1-1.4,0-1.17-.08-2.12-.63-2.96-1.39-1.17-1.06-1.84-2.4-2.1-3.94-.03-.41-.15-.81-.09-1.22-.04-.54.01-1.07.17-1.59.14-.98.54-1.85,1.12-2.64,0,0,0,0,0,0,.25-.48.64-.85,1.04-1.2h0c.78-.62,1.61-1.13,2.63-1.24.07-.03.14-.05.19-.04.48-.09.95-.09,1.43,0,.04,0,.09.01.16.03,1.13.14,2.06.69,2.86,1.45,1.04.99,1.71,2.2,1.94,3.63h0c.16.52.21,1.05.17,1.6.02.51-.03,1.01-.18,1.5Z"/>
  </g>
</svg>