<?xml version="1.0" encoding="UTF-8"?>
<svg id="Capa_2" data-name="Capa 2" xmlns="http://www.w3.org/2000/svg" viewBox="0 0 29.87 31.88">
  <defs>
    <style>
      .cls-1 {
        fill: #48fd48;
      }

      .cls-1, .cls-2, .cls-3, .cls-4 {
        stroke-width: 0px;
      }

      .cls-2 {
        fill: #fd3333;
      }

      .cls-3 {
        fill: #fdd200;
      }

      .cls-4 {
        fill: #3bcafd;
      }
    </style>
  </defs>
  <g id="Capa_2-2" data-name="Capa 2">
    <g>
      <path class="cls-4" d="M1.25,31.88h-.15c-.68-.13-1.03-.55-1.08-1.33C0,30.36,0,30.17,0,29.98,0,20.56,0,11.14,0,1.72c0-.3,0-.61.13-.9C.33.39.62.05,1.13,0c.14,0,.23.07.32.16.45.45.9.9,1.35,1.35,4.69,4.69,9.38,9.38,14.07,14.07.09.09.19.16.23.29,0,.07-.03.12-.07.17-.03.03-.06.06-.09.1-1.37,1.34-2.68,2.73-4.04,4.08-2.08,2.07-4.14,4.16-6.2,6.25-1.32,1.34-2.66,2.66-3.97,4.01-.38.39-.76.79-1.15,1.18-.08.08-.16.15-.26.21-.02.01-.05.02-.07.04Z"/>
      <g>
        <path class="cls-1" d="M17.07,15.91c-.98-.98-1.95-1.96-2.93-2.94C9.88,8.71,5.62,4.45,1.36.19c-.04-.04-.08-.09-.13-.14,0-.02,0-.04.02-.04h.52c.81.2,1.48.68,2.19,1.07,5.95,3.23,11.9,6.48,17.84,9.72.07.04.16.07.22.14.02.12-.07.18-.14.25-1.23,1.27-2.48,2.53-3.74,3.78-.28.28-.55.55-.83.83-.06.06-.11.12-.19.14-.02,0-.04,0-.05-.01Z"/>
        <path class="cls-2" d="M1.63,31.88c-.11,0-.23,0-.34-.01.58-.59,1.16-1.18,1.74-1.77,4.65-4.69,9.3-9.38,13.94-14.07.03-.04.07-.07.1-.11.01,0,.02,0,.04,0,.09,0,.15.05.21.11,1.55,1.54,3.09,3.09,4.63,4.63.06.06.12.11.11.21-.97.53-1.94,1.07-2.91,1.6-5.53,3.03-11.05,6.05-16.58,9.08-.3.16-.6.31-.94.35Z"/>
        <path class="cls-3" d="M22.06,20.85s-.09-.07-.13-.11c-1.58-1.58-3.15-3.15-4.73-4.73-.03-.03-.06-.08-.1-.11.06-.06.11-.13.17-.19,1.54-1.55,3.08-3.1,4.62-4.64.04-.04.08-.09.12-.14.41.18.79.42,1.18.63,1.9,1.03,3.8,2.07,5.7,3.11.23.13.45.26.64.45.4.41.44.88.12,1.35-.19.27-.44.47-.73.63-2.26,1.24-4.53,2.47-6.79,3.71-.03.01-.06.03-.08.04Z"/>
      </g>
    </g>
  </g>
</svg>