<svg width="135" height="135" viewBox="0 0 135 135" fill="none" xmlns="http://www.w3.org/2000/svg">
<path d="M0.567383 0.567383H6.94192V6.94192H0.567383V0.567383ZM6.94192 0.567383H13.3165V6.94192H6.94192V0.567383ZM13.3165 0.567383H19.691V6.94192H13.3165V0.567383ZM19.691 0.567383H26.0655V6.94192H19.691V0.567383ZM26.0655 0.567383H32.4401V6.94192H26.0655V0.567383ZM32.4401 0.567383H38.8146V6.94192H32.4401V0.567383ZM38.8146 0.567383H45.1891V6.94192H38.8146V0.567383ZM57.9382 0.567383H64.3127V6.94192H57.9382V0.567383ZM70.6873 0.567383H77.0618V6.94192H70.6873V0.567383ZM77.0618 0.567383H83.4363V6.94192H77.0618V0.567383ZM89.8109 0.567383H96.1854V6.94192H89.8109V0.567383ZM96.1854 0.567383H102.56V6.94192H96.1854V0.567383ZM102.56 0.567383H108.934V6.94192H102.56V0.567383ZM108.934 0.567383H115.309V6.94192H108.934V0.567383ZM115.309 0.567383H121.684V6.94192H115.309V0.567383ZM121.684 0.567383H128.058V6.94192H121.684V0.567383ZM128.058 0.567383H134.433V6.94192H128.058V0.567383ZM0.567383 6.94192H6.94192V13.3165H0.567383V6.94192ZM38.8146 6.94192H45.1891V13.3165H38.8146V6.94192ZM51.5637 6.94192H57.9382V13.3165H51.5637V6.94192ZM64.3127 6.94192H70.6873V13.3165H64.3127V6.94192ZM70.6873 6.94192H77.0618V13.3165H70.6873V6.94192ZM89.8109 6.94192H96.1854V13.3165H89.8109V6.94192ZM128.058 6.94192H134.433V13.3165H128.058V6.94192ZM0.567383 13.3165H6.94192V19.691H0.567383V13.3165ZM13.3165 13.3165H19.691V19.691H13.3165V13.3165ZM19.691 13.3165H26.0655V19.691H19.691V13.3165ZM26.0655 13.3165H32.4401V19.691H26.0655V13.3165ZM38.8146 13.3165H45.1891V19.691H38.8146V13.3165ZM57.9382 13.3165H64.3127V19.691H57.9382V13.3165ZM64.3127 13.3165H70.6873V19.691H64.3127V13.3165ZM70.6873 13.3165H77.0618V19.691H70.6873V13.3165ZM89.8109 13.3165H96.1854V19.691H89.8109V13.3165ZM102.56 13.3165H108.934V19.691H102.56V13.3165ZM108.934 13.3165H115.309V19.691H108.934V13.3165ZM115.309 13.3165H121.684V19.691H115.309V13.3165ZM128.058 13.3165H134.433V19.691H128.058V13.3165ZM0.567383 19.691H6.94192V26.0655H0.567383V19.691ZM13.3165 19.691H19.691V26.0655H13.3165V19.691ZM19.691 19.691H26.0655V26.0655H19.691V19.691ZM26.0655 19.691H32.4401V26.0655H26.0655V19.691ZM38.8146 19.691H45.1891V26.0655H38.8146V19.691ZM51.5637 19.691H57.9382V26.0655H51.5637V19.691ZM77.0618 19.691H83.4363V26.0655H77.0618V19.691ZM89.8109 19.691H96.1854V26.0655H89.8109V19.691ZM102.56 19.691H108.934V26.0655H102.56V19.691ZM108.934 19.691H115.309V26.0655H108.934V19.691ZM115.309 19.691H121.684V26.0655H115.309V19.691ZM128.058 19.691H134.433V26.0655H128.058V19.691ZM0.567383 26.0655H6.94192V32.4401H0.567383V26.0655ZM13.3165 26.0655H19.691V32.4401H13.3165V26.0655ZM19.691 26.0655H26.0655V32.4401H19.691V26.0655ZM26.0655 26.0655H32.4401V32.4401H26.0655V26.0655ZM38.8146 26.0655H45.1891V32.4401H38.8146V26.0655ZM51.5637 26.0655H57.9382V32.4401H51.5637V26.0655ZM89.8109 26.0655H96.1854V32.4401H89.8109V26.0655ZM102.56 26.0655H108.934V32.4401H102.56V26.0655ZM108.934 26.0655H115.309V32.4401H108.934V26.0655ZM115.309 26.0655H121.684V32.4401H115.309V26.0655ZM128.058 26.0655H134.433V32.4401H128.058V26.0655ZM0.567383 32.4401H6.94192V38.8146H0.567383V32.4401ZM38.8146 32.4401H45.1891V38.8146H38.8146V32.4401ZM57.9382 32.4401H64.3127V38.8146H57.9382V32.4401ZM64.3127 32.4401H70.6873V38.8146H64.3127V32.4401ZM70.6873 32.4401H77.0618V38.8146H70.6873V32.4401ZM77.0618 32.4401H83.4363V38.8146H77.0618V32.4401ZM89.8109 32.4401H96.1854V38.8146H89.8109V32.4401ZM128.058 32.4401H134.433V38.8146H128.058V32.4401ZM0.567383 38.8146H6.94192V45.1891H0.567383V38.8146ZM6.94192 38.8146H13.3165V45.1891H6.94192V38.8146ZM13.3165 38.8146H19.691V45.1891H13.3165V38.8146ZM19.691 38.8146H26.0655V45.1891H19.691V38.8146ZM26.0655 38.8146H32.4401V45.1891H26.0655V38.8146ZM32.4401 38.8146H38.8146V45.1891H32.4401V38.8146ZM38.8146 38.8146H45.1891V45.1891H38.8146V38.8146ZM51.5637 38.8146H57.9382V45.1891H51.5637V38.8146ZM64.3127 38.8146H70.6873V45.1891H64.3127V38.8146ZM77.0618 38.8146H83.4363V45.1891H77.0618V38.8146ZM89.8109 38.8146H96.1854V45.1891H89.8109V38.8146ZM96.1854 38.8146H102.56V45.1891H96.1854V38.8146ZM102.56 38.8146H108.934V45.1891H102.56V38.8146ZM108.934 38.8146H115.309V45.1891H108.934V38.8146ZM115.309 38.8146H121.684V45.1891H115.309V38.8146ZM121.684 38.8146H128.058V45.1891H121.684V38.8146ZM128.058 38.8146H134.433V45.1891H128.058V38.8146ZM51.5637 45.1891H57.9382V51.5637H51.5637V45.1891ZM57.9382 45.1891H64.3127V51.5637H57.9382V45.1891ZM64.3127 45.1891H70.6873V51.5637H64.3127V45.1891ZM70.6873 45.1891H77.0618V51.5637H70.6873V45.1891ZM6.94192 51.5637H13.3165V57.9382H6.94192V51.5637ZM19.691 51.5637H26.0655V57.9382H19.691V51.5637ZM26.0655 51.5637H32.4401V57.9382H26.0655V51.5637ZM32.4401 51.5637H38.8146V57.9382H32.4401V51.5637ZM38.8146 51.5637H45.1891V57.9382H38.8146V51.5637ZM51.5637 51.5637H57.9382V57.9382H51.5637V51.5637ZM57.9382 51.5637H64.3127V57.9382H57.9382V51.5637ZM83.4363 51.5637H89.8109V57.9382H83.4363V51.5637ZM89.8109 51.5637H96.1854V57.9382H89.8109V51.5637ZM102.56 51.5637H108.934V57.9382H102.56V51.5637ZM108.934 51.5637H115.309V57.9382H108.934V51.5637ZM121.684 51.5637H128.058V57.9382H121.684V51.5637ZM0.567383 57.9382H6.94192V64.3127H0.567383V57.9382ZM13.3165 57.9382H19.691V64.3127H13.3165V57.9382ZM19.691 57.9382H26.0655V64.3127H19.691V57.9382ZM57.9382 57.9382H64.3127V64.3127H57.9382V57.9382ZM70.6873 57.9382H77.0618V64.3127H70.6873V57.9382ZM77.0618 57.9382H83.4363V64.3127H77.0618V57.9382ZM89.8109 57.9382H96.1854V64.3127H89.8109V57.9382ZM102.56 57.9382H108.934V64.3127H102.56V57.9382ZM115.309 57.9382H121.684V64.3127H115.309V57.9382ZM6.94192 64.3127H13.3165V70.6873H6.94192V64.3127ZM19.691 64.3127H26.0655V70.6873H19.691V64.3127ZM32.4401 64.3127H38.8146V70.6873H32.4401V64.3127ZM38.8146 64.3127H45.1891V70.6873H38.8146V64.3127ZM51.5637 64.3127H57.9382V70.6873H51.5637V64.3127ZM57.9382 64.3127H64.3127V70.6873H57.9382V64.3127ZM77.0618 64.3127H83.4363V70.6873H77.0618V64.3127ZM83.4363 64.3127H89.8109V70.6873H83.4363V64.3127ZM89.8109 64.3127H96.1854V70.6873H89.8109V64.3127ZM102.56 64.3127H108.934V70.6873H102.56V64.3127ZM115.309 64.3127H121.684V70.6873H115.309V64.3127ZM121.684 64.3127H128.058V70.6873H121.684V64.3127ZM128.058 64.3127H134.433V70.6873H128.058V64.3127ZM0.567383 70.6873H6.94192V77.0618H0.567383V70.6873ZM6.94192 70.6873H13.3165V77.0618H6.94192V70.6873ZM13.3165 70.6873H19.691V77.0618H13.3165V70.6873ZM32.4401 70.6873H38.8146V77.0618H32.4401V70.6873ZM45.1891 70.6873H51.5637V77.0618H45.1891V70.6873ZM51.5637 70.6873H57.9382V77.0618H51.5637V70.6873ZM57.9382 70.6873H64.3127V77.0618H57.9382V70.6873ZM70.6873 70.6873H77.0618V77.0618H70.6873V70.6873ZM115.309 70.6873H121.684V77.0618H115.309V70.6873ZM121.684 70.6873H128.058V77.0618H121.684V70.6873ZM128.058 70.6873H134.433V77.0618H128.058V70.6873ZM6.94192 77.0618H13.3165V83.4363H6.94192V77.0618ZM26.0655 77.0618H32.4401V83.4363H26.0655V77.0618ZM38.8146 77.0618H45.1891V83.4363H38.8146V77.0618ZM89.8109 77.0618H96.1854V83.4363H89.8109V77.0618ZM108.934 77.0618H115.309V83.4363H108.934V77.0618ZM128.058 77.0618H134.433V83.4363H128.058V77.0618ZM51.5637 83.4363H57.9382V89.8109H51.5637V83.4363ZM64.3127 83.4363H70.6873V89.8109H64.3127V83.4363ZM70.6873 83.4363H77.0618V89.8109H70.6873V83.4363ZM108.934 83.4363H115.309V89.8109H108.934V83.4363ZM0.567383 89.8109H6.94192V96.1854H0.567383V89.8109ZM6.94192 89.8109H13.3165V96.1854H6.94192V89.8109ZM13.3165 89.8109H19.691V96.1854H13.3165V89.8109ZM19.691 89.8109H26.0655V96.1854H19.691V89.8109ZM26.0655 89.8109H32.4401V96.1854H26.0655V89.8109ZM32.4401 89.8109H38.8146V96.1854H32.4401V89.8109ZM38.8146 89.8109H45.1891V96.1854H38.8146V89.8109ZM57.9382 89.8109H64.3127V96.1854H57.9382V89.8109ZM64.3127 89.8109H70.6873V96.1854H64.3127V89.8109ZM70.6873 89.8109H77.0618V96.1854H70.6873V89.8109ZM77.0618 89.8109H83.4363V96.1854H77.0618V89.8109ZM83.4363 89.8109H89.8109V96.1854H83.4363V89.8109ZM89.8109 89.8109H96.1854V96.1854H89.8109V89.8109ZM96.1854 89.8109H102.56V96.1854H96.1854V89.8109ZM102.56 89.8109H108.934V96.1854H102.56V89.8109ZM115.309 89.8109H121.684V96.1854H115.309V89.8109ZM0.567383 96.1854H6.94192V102.56H0.567383V96.1854ZM38.8146 96.1854H45.1891V102.56H38.8146V96.1854ZM51.5637 96.1854H57.9382V102.56H51.5637V96.1854ZM57.9382 96.1854H64.3127V102.56H57.9382V96.1854ZM70.6873 96.1854H77.0618V102.56H70.6873V96.1854ZM83.4363 96.1854H89.8109V102.56H83.4363V96.1854ZM102.56 96.1854H108.934V102.56H102.56V96.1854ZM108.934 96.1854H115.309V102.56H108.934V96.1854ZM115.309 96.1854H121.684V102.56H115.309V96.1854ZM0.567383 102.56H6.94192V108.934H0.567383V102.56ZM13.3165 102.56H19.691V108.934H13.3165V102.56ZM19.691 102.56H26.0655V108.934H19.691V102.56ZM26.0655 102.56H32.4401V108.934H26.0655V102.56ZM38.8146 102.56H45.1891V108.934H38.8146V102.56ZM51.5637 102.56H57.9382V108.934H51.5637V102.56ZM64.3127 102.56H70.6873V108.934H64.3127V102.56ZM70.6873 102.56H77.0618V108.934H70.6873V102.56ZM89.8109 102.56H96.1854V108.934H89.8109V102.56ZM108.934 102.56H115.309V108.934H108.934V102.56ZM121.684 102.56H128.058V108.934H121.684V102.56ZM128.058 102.56H134.433V108.934H128.058V102.56ZM0.567383 108.934H6.94192V115.309H0.567383V108.934ZM13.3165 108.934H19.691V115.309H13.3165V108.934ZM19.691 108.934H26.0655V115.309H19.691V108.934ZM26.0655 108.934H32.4401V115.309H26.0655V108.934ZM38.8146 108.934H45.1891V115.309H38.8146V108.934ZM51.5637 108.934H57.9382V115.309H51.5637V108.934ZM70.6873 108.934H77.0618V115.309H70.6873V108.934ZM77.0618 108.934H83.4363V115.309H77.0618V108.934ZM96.1854 108.934H102.56V115.309H96.1854V108.934ZM0.567383 115.309H6.94192V121.684H0.567383V115.309ZM13.3165 115.309H19.691V121.684H13.3165V115.309ZM19.691 115.309H26.0655V121.684H19.691V115.309ZM26.0655 115.309H32.4401V121.684H26.0655V115.309ZM38.8146 115.309H45.1891V121.684H38.8146V115.309ZM57.9382 115.309H64.3127V121.684H57.9382V115.309ZM64.3127 115.309H70.6873V121.684H64.3127V115.309ZM89.8109 115.309H96.1854V121.684H89.8109V115.309ZM102.56 115.309H108.934V121.684H102.56V115.309ZM108.934 115.309H115.309V121.684H108.934V115.309ZM115.309 115.309H121.684V121.684H115.309V115.309ZM121.684 115.309H128.058V121.684H121.684V115.309ZM128.058 115.309H134.433V121.684H128.058V115.309ZM0.567383 121.684H6.94192V128.058H0.567383V121.684ZM38.8146 121.684H45.1891V128.058H38.8146V121.684ZM51.5637 121.684H57.9382V128.058H51.5637V121.684ZM57.9382 121.684H64.3127V128.058H57.9382V121.684ZM83.4363 121.684H89.8109V128.058H83.4363V121.684ZM89.8109 121.684H96.1854V128.058H89.8109V121.684ZM96.1854 121.684H102.56V128.058H96.1854V121.684ZM108.934 121.684H115.309V128.058H108.934V121.684ZM115.309 121.684H121.684V128.058H115.309V121.684ZM121.684 121.684H128.058V128.058H121.684V121.684ZM128.058 121.684H134.433V128.058H128.058V121.684ZM0.567383 128.058H6.94192V134.433H0.567383V128.058ZM6.94192 128.058H13.3165V134.433H6.94192V128.058ZM13.3165 128.058H19.691V134.433H13.3165V128.058ZM19.691 128.058H26.0655V134.433H19.691V128.058ZM26.0655 128.058H32.4401V134.433H26.0655V128.058ZM32.4401 128.058H38.8146V134.433H32.4401V128.058ZM38.8146 128.058H45.1891V134.433H38.8146V128.058ZM57.9382 128.058H64.3127V134.433H57.9382V128.058ZM70.6873 128.058H77.0618V134.433H70.6873V128.058ZM102.56 128.058H108.934V134.433H102.56V128.058Z" fill="black"/>
</svg>
